<svg aria-hidden="true" style="position: absolute; width: 0; height: 0; overflow: hidden;" version="1.1" xmlns="http://www.w3.org/2000/svg" xmlns:xlink="http://www.w3.org/1999/xlink">
<defs>
<symbol id="icon-add-black-18dp" viewBox="0 0 32 32">
<path d="M24 17.333h-6.667v6.667c0 0.733-0.6 1.333-1.333 1.333v0c-0.733 0-1.333-0.6-1.333-1.333v-6.667h-6.667c-0.733 0-1.333-0.6-1.333-1.333v0c0-0.733 0.6-1.333 1.333-1.333h6.667v-6.667c0-0.733 0.6-1.333 1.333-1.333v0c0.733 0 1.333 0.6 1.333 1.333v6.667h6.667c0.733 0 1.333 0.6 1.333 1.333v0c0 0.733-0.6 1.333-1.333 1.333z"></path>
</symbol>
<symbol id="icon-play" viewBox="0 0 32 32">
<path d="M16 2.667c-7.36 0-13.333 5.973-13.333 13.333s5.973 13.333 13.333 13.333 13.333-5.973 13.333-13.333-5.973-13.333-13.333-13.333zM16 26.667c-5.88 0-10.667-4.787-10.667-10.667s4.787-10.667 10.667-10.667 10.667 4.787 10.667 10.667-4.787 10.667-10.667 10.667zM14.72 20.68l5.533-3.56c0.813-0.52 0.813-1.72 0-2.24l-5.533-3.56c-0.88-0.573-2.053 0.067-2.053 1.12v7.12c0 1.053 1.173 1.693 2.053 1.12z"></path>
</symbol>
</defs>

</svg>
