<svg aria-hidden="true" style="position: absolute; width: 0; height: 0; overflow: hidden;" version="1.1" xmlns="http://www.w3.org/2000/svg" xmlns:xlink="http://www.w3.org/1999/xlink">
<defs>
<symbol id="icon-add-black-18dp" viewBox="0 0 32 32">
<path d="M24 17.333h-6.667v6.667c0 0.733-0.6 1.333-1.333 1.333v0c-0.733 0-1.333-0.6-1.333-1.333v-6.667h-6.667c-0.733 0-1.333-0.6-1.333-1.333v0c0-0.733 0.6-1.333 1.333-1.333h6.667v-6.667c0-0.733 0.6-1.333 1.333-1.333v0c0.733 0 1.333 0.6 1.333 1.333v6.667h6.667c0.733 0 1.333 0.6 1.333 1.333v0c0 0.733-0.6 1.333-1.333 1.333z"></path>
</symbol>
</defs>

</svg>
