<svg aria-hidden="true" style="position: absolute; width: 0; height: 0; overflow: hidden;" version="1.1" xmlns="http://www.w3.org/2000/svg" xmlns:xlink="http://www.w3.org/1999/xlink">
<defs>
<symbol id="icon-add-black-18dp" viewBox="0 0 32 32">
<path d="M24 17.333h-6.667v6.667c0 0.733-0.6 1.333-1.333 1.333v0c-0.733 0-1.333-0.6-1.333-1.333v-6.667h-6.667c-0.733 0-1.333-0.6-1.333-1.333v0c0-0.733 0.6-1.333 1.333-1.333h6.667v-6.667c0-0.733 0.6-1.333 1.333-1.333v0c0.733 0 1.333 0.6 1.333 1.333v6.667h6.667c0.733 0 1.333 0.6 1.333 1.333v0c0 0.733-0.6 1.333-1.333 1.333z"></path>
</symbol>
<symbol id="icon-play" viewBox="0 0 32 32">
<path d="M16 2.667c-7.36 0-13.333 5.973-13.333 13.333s5.973 13.333 13.333 13.333 13.333-5.973 13.333-13.333-5.973-13.333-13.333-13.333zM16 26.667c-5.88 0-10.667-4.787-10.667-10.667s4.787-10.667 10.667-10.667 10.667 4.787 10.667 10.667-4.787 10.667-10.667 10.667zM14.72 20.68l5.533-3.56c0.813-0.52 0.813-1.72 0-2.24l-5.533-3.56c-0.88-0.573-2.053 0.067-2.053 1.12v7.12c0 1.053 1.173 1.693 2.053 1.12z"></path>
</symbol>
<symbol id="icon-update" viewBox="0 0 32 32">
<path d="M14.667 10.667v5.333c0 0.36 0.147 0.693 0.387 0.947l3.72 3.72c0.52 0.52 1.36 0.52 1.88 0v0c0.52-0.52 0.52-1.36 0-1.88l-3.333-3.333v-4.787c0-0.733-0.6-1.333-1.333-1.333v0c-0.72 0-1.32 0.6-1.32 1.333zM26.867 6.467l-1.747 1.747c-2.133-2.507-5.28-4.12-8.8-4.213-6.52-0.16-12.133 5.147-12.32 11.653-0.187 6.787 5.253 12.347 12 12.347 5.6 0 10.293-3.84 11.627-9.013 0.213-0.84-0.44-1.653-1.307-1.653v0c-0.6 0-1.133 0.4-1.28 0.973-1.16 4.547-5.667 7.773-10.733 6.88-3.707-0.653-6.72-3.613-7.44-7.293-1.187-5.973 3.373-11.227 9.133-11.227 2.907 0 5.493 1.36 7.213 3.453l-2.067 2.067c-0.427 0.427-0.133 1.147 0.467 1.147h5.72c0.373 0 0.667-0.293 0.667-0.667v-5.72c0-0.6-0.72-0.893-1.133-0.48z"></path>
</symbol>
<symbol id="icon-delete" viewBox="0 0 32 32">
<path d="M8 25.333c0 1.467 1.2 2.667 2.667 2.667h10.667c1.467 0 2.667-1.2 2.667-2.667v-16h-16v16zM24 5.333h-3.333l-0.947-0.947c-0.24-0.24-0.587-0.387-0.933-0.387h-5.573c-0.347 0-0.693 0.147-0.933 0.387l-0.947 0.947h-3.333c-0.733 0-1.333 0.6-1.333 1.333s0.6 1.333 1.333 1.333h16c0.733 0 1.333-0.6 1.333-1.333s-0.6-1.333-1.333-1.333z"></path>
</symbol>
<symbol id="icon-send" viewBox="0 0 32 32">
<path d="M4 7.347v4.947c0 0.613 0.413 1.147 1.013 1.293l9.653 2.413-9.653 2.413c-0.6 0.147-1.013 0.68-1.013 1.293v4.947c0 0.96 0.973 1.6 1.853 1.227l20.56-8.653c1.093-0.453 1.093-2 0-2.453l-20.56-8.667c-0.88-0.36-1.853 0.28-1.853 1.24z"></path>
</symbol>
<symbol id="icon-edit" viewBox="0 0 32 32">
<path d="M16 10.667c1.467 0 2.667-1.2 2.667-2.667s-1.2-2.667-2.667-2.667-2.667 1.2-2.667 2.667 1.2 2.667 2.667 2.667zM16 13.333c-1.467 0-2.667 1.2-2.667 2.667s1.2 2.667 2.667 2.667 2.667-1.2 2.667-2.667-1.2-2.667-2.667-2.667zM16 21.333c-1.467 0-2.667 1.2-2.667 2.667s1.2 2.667 2.667 2.667 2.667-1.2 2.667-2.667-1.2-2.667-2.667-2.667z"></path>
</symbol><symbol id="icon-close" viewBox="0 0 32 32">
<path d="M16 2.667c-7.373 0-13.333 5.96-13.333 13.333s5.96 13.333 13.333 13.333 13.333-5.96 13.333-13.333c0-7.373-5.96-13.333-13.333-13.333zM21.72 19.853c0.52 0.52 0.52 1.36 0 1.88s-1.36 0.52-1.88 0l-3.84-3.853-3.853 3.853c-0.52 0.52-1.36 0.52-1.88 0s-0.52-1.36 0-1.88l3.853-3.853-3.84-3.853c-0.52-0.52-0.52-1.36 0-1.88s1.36-0.52 1.88 0l3.84 3.853 3.853-3.853c0.52-0.52 1.36-0.52 1.88 0s0.52 1.36 0 1.88l-3.853 3.853 3.84 3.853z"></path>
</symbol>
</defs>

</svg>
